<svg width="98" height="98" viewBox="0 0 98 98" fill="none" xmlns="http://www.w3.org/2000/svg">
<rect width="98" height="98" rx="4" fill="#141114"/>
<rect x="24" y="24" width="50" height="50" fill="#141114"/>
<path d="M49.4271 24C51.8739 24 54.0281 24.3856 55.8899 25.1569C57.7781 25.9016 59.4138 27.0053 60.7968 28.4681L57.4856 32.8963C56.342 31.6995 55.1053 30.8085 53.7755 30.2234C52.4723 29.6117 50.9829 29.3059 49.3074 29.3059C47.8446 29.3059 46.7941 29.5452 46.1558 30.0239C45.5175 30.5027 45.1984 31.0878 45.1984 31.7793C45.1984 32.3378 45.451 32.8165 45.9563 33.2154C46.4883 33.5878 47.3393 33.9069 48.5095 34.1729L52.9377 35.1702C55.5707 35.7819 57.4989 36.6729 58.7223 37.8431C59.9457 39.0133 60.5574 40.5691 60.5574 42.5106C60.5574 44.3723 60.0787 45.9548 59.1212 47.258C58.1638 48.5346 56.8473 49.5053 55.1718 50.1702C53.4962 50.8085 51.5813 51.1277 49.4271 51.1277C46.7675 51.1277 44.334 50.7021 42.1266 49.8511C39.9191 48.9734 38.1638 47.8298 36.8606 46.4202L40.1718 41.8324C41.1558 42.9761 42.4856 43.9335 44.1611 44.7048C45.8367 45.4495 47.5654 45.8218 49.3473 45.8218C52.1133 45.8218 53.4962 45.0106 53.4962 43.3883C53.4962 42.8298 53.2835 42.3644 52.8579 41.992C52.459 41.5931 51.7143 41.2606 50.6239 40.9947L45.7569 39.9176C44.2675 39.5984 42.9377 39.1463 41.7675 38.5612C40.6239 37.9761 39.7196 37.2048 39.0547 36.2473C38.3899 35.2633 38.0574 34.0399 38.0574 32.5771C38.0574 30.9282 38.5095 29.4654 39.4138 28.1888C40.318 26.8856 41.6212 25.8617 43.3234 25.117C45.0255 24.3723 47.0601 24 49.4271 24Z" fill="white"/>
<rect x="36.2222" y="58.4858" width="26.5957" height="15.5142" fill="#D5E880"/>
</svg>
