<svg width="117" height="117" viewBox="0 0 117 117" fill="none" xmlns="http://www.w3.org/2000/svg">
<path d="M0 5.70732C0 2.55525 2.55525 0 5.70732 0H111.293C114.445 0 117 2.55525 117 5.70732V111.293C117 114.445 114.445 117 111.293 117H5.70732C2.55525 117 0 114.445 0 111.293V5.70732Z" fill="#141114"/>
<path d="M14.1819 14.1818H102.818V102.818H14.1819V14.1818Z" fill="#141114"/>
<path d="M59.5043 14.1818C63.8418 14.1818 67.6607 14.8655 70.961 16.2327C74.3084 17.5528 77.208 19.5094 79.6596 22.1025L73.7898 29.9525C71.7625 27.8309 69.5701 26.2515 67.2128 25.2142C64.9026 24.1298 62.2624 23.5877 59.2921 23.5877C56.699 23.5877 54.8367 24.012 53.7052 24.8606C52.5736 25.7093 52.0079 26.7465 52.0079 27.9723C52.0079 28.9624 52.4558 29.8111 53.3516 30.5183C54.2945 31.1783 55.8032 31.7441 57.8777 32.2156L65.7277 33.9836C70.3952 35.0679 73.8134 36.6474 75.9821 38.7218C78.1509 40.7963 79.2353 43.5544 79.2353 46.9961C79.2353 50.2964 78.3866 53.1017 76.6893 55.4119C74.992 57.6749 72.6583 59.3958 69.688 60.5745C66.7177 61.706 63.3232 62.2718 59.5043 62.2718C54.7896 62.2718 50.4756 61.5174 46.5624 60.0087C42.6492 58.4529 39.5375 56.4255 37.2273 53.9267L43.0971 45.7939C44.8415 47.8212 47.1989 49.5185 50.1691 50.8858C53.1394 52.2059 56.204 52.8659 59.3628 52.8659C64.2661 52.8659 66.7177 51.428 66.7177 48.552C66.7177 47.5619 66.3406 46.7368 65.5862 46.0768C64.879 45.3696 63.5589 44.7802 61.6259 44.3088L52.998 42.3993C50.3577 41.8335 48.0004 41.032 45.9259 39.9948C43.8986 38.9576 42.2956 37.5903 41.1169 35.893C39.9382 34.1486 39.3489 31.9798 39.3489 29.3867C39.3489 26.4636 40.1504 23.8705 41.7534 21.6075C43.3564 19.2973 45.6666 17.4821 48.684 16.162C51.7014 14.8419 55.3082 14.1818 59.5043 14.1818Z" fill="white"/>
<path d="M35.4546 75.3158H82.6016V102.818H35.4546V75.3158Z" fill="#D5E880"/>
</svg>
