<svg width="551" height="193" viewBox="0 0 551 193" fill="none" xmlns="http://www.w3.org/2000/svg">
<path d="M46.2173 6.51998C55.2162 6.51998 63.1392 7.91198 69.9862 10.696C76.931 13.384 82.9466 17.368 88.0329 22.648L75.855 38.632C71.649 34.312 67.1006 31.096 62.2099 28.984C57.417 26.776 51.9394 25.672 45.7771 25.672C40.3973 25.672 36.5337 26.536 34.1861 28.264C31.8386 29.992 30.6648 32.104 30.6648 34.6C30.6648 36.616 31.594 38.344 33.4525 39.784C35.4088 41.128 38.5388 42.28 42.8427 43.24L59.1288 46.84C68.8124 49.048 75.9039 52.264 80.4034 56.488C84.9028 60.712 87.1526 66.328 87.1526 73.336C87.1526 80.056 85.3919 85.768 81.8706 90.472C78.3493 95.08 73.5075 98.584 67.3452 100.984C61.1829 103.288 54.1402 104.44 46.2173 104.44C36.4358 104.44 27.4858 102.904 19.3672 99.832C11.2486 96.664 4.7929 92.536 0 87.448L12.1779 70.888C15.797 75.016 20.6877 78.472 26.85 81.256C33.0123 83.944 39.3703 85.288 45.9238 85.288C56.0965 85.288 61.1829 82.36 61.1829 76.504C61.1829 74.488 60.4004 72.808 58.8353 71.464C57.3681 70.024 54.6293 68.824 50.6189 67.864L32.7189 63.976C27.2413 62.824 22.3506 61.192 18.0467 59.08C13.8407 56.968 10.515 54.184 8.06968 50.728C5.62432 47.176 4.40165 42.76 4.40165 37.48C4.40165 31.528 6.06449 26.248 9.39018 21.64C12.7159 16.936 17.5088 13.24 23.7689 10.552C30.029 7.86398 37.5118 6.51998 46.2173 6.51998Z" fill="white"/>
<path d="M125.678 104.44C118.245 104.44 112.18 102.472 107.485 98.536C102.79 94.6 100.442 88.12 100.442 79.096V31H125.385V73.336C125.385 77.944 126.314 81.16 128.173 82.984C130.031 84.808 132.672 85.72 136.096 85.72C139.617 85.72 142.6 84.472 145.046 81.976C147.589 79.384 148.86 75.256 148.86 69.592V31H173.803V103H151.501L150.768 89.464C148.42 94.552 145.143 98.344 140.937 100.84C136.731 103.24 131.645 104.44 125.678 104.44Z" fill="white"/>
<path d="M191.724 133.24V31H214.172L214.906 45.544C216.96 40.744 220.041 36.904 224.149 34.024C228.355 31.048 233.295 29.56 238.968 29.56C247.967 29.56 255.205 32.824 260.683 39.352C266.258 45.88 269.046 55 269.046 66.712C269.046 78.616 266.209 87.88 260.536 94.504C254.961 101.128 247.674 104.44 238.675 104.44C233.393 104.44 228.893 103.192 225.176 100.696C221.459 98.104 218.623 94.744 216.666 90.616V133.24H191.724ZM230.165 86.44C234.469 86.44 237.843 84.904 240.289 81.832C242.734 78.664 243.957 73.72 243.957 67C243.957 60.28 242.734 55.384 240.289 52.312C237.941 49.144 234.615 47.56 230.311 47.56C226.105 47.56 222.78 49.24 220.334 52.6C217.889 55.864 216.666 60.664 216.666 67C216.666 73.048 217.84 77.8 220.188 81.256C222.535 84.712 225.861 86.44 230.165 86.44Z" fill="white"/>
<path d="M319.511 104.44C307.284 104.44 297.601 101.176 290.46 94.648C283.418 88.12 279.896 78.904 279.896 67C279.896 59.128 281.51 52.408 284.738 46.84C288.064 41.176 292.563 36.904 298.237 34.024C304.008 31.048 310.708 29.56 318.338 29.56C326.065 29.56 332.618 31.048 337.998 34.024C343.476 36.904 347.633 40.936 350.47 46.12C353.306 51.208 354.724 57.064 354.724 63.688C354.724 65.512 354.627 67.288 354.431 69.016C354.333 70.648 354.235 72.04 354.138 73.192H304.106C304.79 78.184 306.453 81.784 309.094 83.992C311.735 86.104 315.207 87.16 319.511 87.16C323.228 87.16 326.163 86.44 328.315 85C330.564 83.56 332.227 81.544 333.303 78.952L353.257 85.432C351.888 89.56 349.491 93.064 346.068 95.944C342.742 98.728 338.732 100.84 334.037 102.28C329.439 103.72 324.598 104.44 319.511 104.44ZM318.338 46.696C310.415 46.696 305.719 51.16 304.252 60.088H331.102C330.026 51.16 325.771 46.696 318.338 46.696Z" fill="white"/>
<path d="M368.678 103V31H390.686L391.713 46.552C393.474 41.272 396.164 37.144 399.783 34.168C403.5 31.096 408.244 29.56 414.015 29.56C415.873 29.56 417.438 29.752 418.71 30.136C420.079 30.424 421.155 30.76 421.938 31.144L419.444 51.304C418.465 51.016 417.194 50.728 415.629 50.44C414.162 50.152 412.352 50.008 410.2 50.008C405.701 50.008 401.788 51.4 398.462 54.184C395.234 56.968 393.621 61.144 393.621 66.712V103H368.678Z" fill="white"/>
<path d="M478.82 104.44C472.853 104.44 467.767 102.856 463.561 99.688C459.355 96.52 456.323 92.344 454.464 87.16L453.584 103H431.722V0.471985H456.665V43.384C458.621 39.256 461.507 35.944 465.322 33.448C469.234 30.856 474.027 29.56 479.7 29.56C485.373 29.56 490.411 31.048 494.813 34.024C499.214 37 502.687 41.32 505.23 46.984C507.773 52.552 509.045 59.32 509.045 67.288C509.045 79 506.257 88.12 500.681 94.648C495.106 101.176 487.819 104.44 478.82 104.44ZM470.163 86.44C474.467 86.44 477.842 84.904 480.287 81.832C482.732 78.664 483.955 73.72 483.955 67C483.955 60.28 482.732 55.384 480.287 52.312C477.842 49.144 474.467 47.56 470.163 47.56C465.957 47.56 462.632 49.288 460.186 52.744C457.839 56.2 456.665 61 456.665 67.144C456.665 73.384 457.888 78.184 460.333 81.544C462.778 84.808 466.055 86.44 470.163 86.44Z" fill="white"/>
<path d="M549.826 7.95998V38.632L547.038 72.04H526.644L523.857 38.632V7.95998H549.826ZM536.768 80.104C541.17 80.104 544.642 81.16 547.185 83.272C549.728 85.384 551 88.36 551 92.2C551 95.944 549.728 98.872 547.185 100.984C544.642 103.096 541.17 104.152 536.768 104.152C532.366 104.152 528.894 103.096 526.351 100.984C523.905 98.872 522.683 95.944 522.683 92.2C522.683 88.36 523.905 85.384 526.351 83.272C528.894 81.16 532.366 80.104 536.768 80.104Z" fill="white"/>
<rect y="133" width="551" height="60" fill="#D5E880"/>
</svg>
